<svg viewBox="0 0 20 20" fill="none" xmlns="http://www.w3.org/2000/svg">
<path d="M9.99964 4.37512C13.4005 4.37528 16.359 6.26479 17.8805 9.047C18.2054 9.64126 18.2054 10.36 17.8805 10.9542C16.3589 13.7361 13.4003 15.625 9.99964 15.6251C6.59869 15.6251 3.64034 13.7355 2.11873 10.9532C1.7938 10.3589 1.79371 9.64032 2.11873 9.04602C3.64044 6.26412 6.59893 4.37512 9.99964 4.37512ZM10.0006 6.87512C8.27479 6.87512 6.87574 8.27434 6.8756 10.0001C6.8756 11.726 8.2747 13.1251 10.0006 13.1251C11.7265 13.125 13.1256 11.726 13.1256 10.0001C13.1255 8.27439 11.7264 6.87521 10.0006 6.87512ZM10.0006 8.12512C10.5668 8.12517 11.0729 8.37774 11.4166 8.77454C10.8466 8.8906 10.4176 9.39585 10.4176 10.0001C10.4177 10.6049 10.8479 11.1083 11.4186 11.2238C11.0748 11.6219 10.5679 11.8751 10.0006 11.8751C8.96509 11.8751 8.1256 11.0356 8.1256 10.0001C8.12574 8.96472 8.96517 8.12512 10.0006 8.12512Z" fill="currentColor"/>
</svg>
